<svg width="28" height="25" viewBox="0 0 28 25" fill="none" xmlns="http://www.w3.org/2000/svg">
<path d="M21.1379 0.00736331C21.0848 0.0114051 20.9851 0.020297 20.9167 0.0267639C20.8483 0.0340391 20.7268 0.0510146 20.6472 0.0639484C20.5675 0.0776904 20.4268 0.108408 20.3334 0.13185C20.2401 0.155293 20.1009 0.197327 20.0237 0.224003C19.9465 0.250679 19.825 0.296755 19.7542 0.325856C19.6834 0.355765 19.5676 0.408309 19.4968 0.443068C19.426 0.478636 19.3085 0.542496 19.2353 0.586147C19.1621 0.629799 19.0559 0.697701 18.998 0.737311C18.9401 0.77692 18.8387 0.85048 18.7727 0.900598C18.706 0.949908 18.6191 1.01943 18.5796 1.05338C18.5402 1.08733 18.4364 1.18191 18.3504 1.26274C18.2643 1.34358 18.1484 1.45917 18.0929 1.51899C18.0374 1.57881 17.9393 1.68956 17.8749 1.76473C17.8106 1.84072 17.7285 1.93853 17.6931 1.98299C17.6577 2.02745 17.5676 2.14789 17.4936 2.24975C17.4196 2.3516 17.3053 2.5157 17.2402 2.61351C17.175 2.71132 17.0769 2.86572 17.0214 2.95706C16.9658 3.0484 16.8991 3.15915 16.8725 3.20361C16.846 3.24807 16.7881 3.34831 16.7438 3.42591C16.6996 3.50351 16.5998 3.68539 16.5226 3.83009C16.4445 3.97478 16.34 4.17283 16.2893 4.27064C16.2378 4.36845 16.1437 4.55357 16.0793 4.6829C16.0157 4.81224 15.912 5.02242 15.85 5.15175C15.7881 5.28109 15.673 5.52602 15.595 5.69739C15.5162 5.86877 15.4172 6.08864 15.3738 6.18645C15.3303 6.28426 15.2748 6.41117 15.2507 6.46938C15.2265 6.52758 15.159 6.68925 15.1002 6.82909C15.0415 6.96894 14.9562 7.17669 14.9112 7.28986C14.8653 7.40303 14.7736 7.63988 14.7076 7.81529C14.6417 7.9907 14.5588 8.21139 14.525 8.30435C14.4904 8.39731 14.4349 8.55413 14.4003 8.65194C14.3665 8.74975 14.2724 9.02783 14.1928 9.27034C14.1131 9.51284 14.015 9.81598 13.9756 9.94531C13.9361 10.0747 13.8879 10.2339 13.8694 10.301C13.8501 10.3673 13.8324 10.4255 13.83 10.4287C13.8275 10.4328 13.7141 10.3018 13.5781 10.1377C13.443 9.97441 13.2443 9.73514 13.1365 9.6058C13.0287 9.47647 12.8935 9.31641 12.8364 9.24932C12.7785 9.18222 12.6916 9.08037 12.6425 9.02298C12.5943 8.96558 12.4784 8.8314 12.3851 8.7255C12.2926 8.6188 12.1639 8.47329 12.1003 8.40216C12.0359 8.33021 11.9491 8.23402 11.9072 8.18794C11.8646 8.14106 11.7793 8.0481 11.7182 7.98181C11.6562 7.91472 11.5098 7.75951 11.3924 7.63745C11.2749 7.51539 11.081 7.31815 10.9611 7.20013C10.8421 7.08211 10.6627 6.90912 10.5629 6.81616C10.4632 6.7232 10.3489 6.61811 10.3095 6.58255C10.2693 6.54698 10.1607 6.4524 10.0682 6.37237C9.97565 6.29235 9.85739 6.1913 9.80671 6.14927C9.75603 6.10642 9.6434 6.01589 9.55732 5.94798C9.47124 5.88008 9.33206 5.77257 9.24759 5.70952C9.16312 5.64647 9.03118 5.55027 8.95395 5.4953C8.87672 5.44114 8.74076 5.34818 8.65227 5.28917C8.56377 5.23016 8.44632 5.15418 8.39081 5.11942C8.3353 5.08547 8.20497 5.00786 8.10119 4.94724C7.99741 4.88742 7.83249 4.79688 7.73515 4.74677C7.63781 4.69665 7.48013 4.62147 7.3852 4.57943C7.29027 4.5374 7.13098 4.47031 7.03122 4.42989C6.93147 4.39028 6.7762 4.33127 6.68529 4.30055C6.59439 4.26903 6.45923 4.22457 6.38361 4.20193C6.30799 4.1793 6.15996 4.13888 6.05377 4.1122C5.94758 4.08553 5.7722 4.04592 5.66359 4.02409C5.55499 4.00146 5.37961 3.97074 5.27342 3.95538C5.16723 3.94002 5.02564 3.92224 4.95967 3.91496C4.8937 3.9085 4.78348 3.89961 4.71591 3.89476C4.64914 3.89071 4.47215 3.88667 4.32412 3.88667C4.15679 3.88667 3.9975 3.89152 3.90418 3.8988C3.82051 3.90526 3.6934 3.9182 3.6202 3.9279C3.54699 3.93679 3.43114 3.95457 3.36276 3.96751C3.29438 3.97963 3.18014 4.00388 3.10935 4.02005C3.03855 4.03703 2.91546 4.06936 2.83582 4.0928C2.75618 4.11625 2.65079 4.1502 2.60252 4.16798C2.55425 4.18496 2.46897 4.21891 2.41346 4.24235C2.35795 4.26498 2.26222 4.30944 2.20027 4.33935C2.13833 4.37007 2.03857 4.42261 1.97904 4.45656C1.91951 4.49052 1.80929 4.56003 1.73367 4.61015C1.65805 4.66027 1.55508 4.73545 1.50278 4.77748C1.4513 4.81871 1.36682 4.89146 1.31373 4.93915C1.26144 4.98604 1.18099 5.06445 1.13433 5.11295C1.08767 5.16064 1.01526 5.24067 0.97343 5.28917C0.931597 5.33767 0.863216 5.42498 0.819773 5.48318C0.777135 5.54138 0.711167 5.63515 0.674161 5.69335C0.63635 5.75155 0.583254 5.83886 0.555097 5.88736C0.52694 5.93586 0.476257 6.03286 0.443273 6.10157C0.409484 6.17028 0.358802 6.28507 0.330645 6.35621C0.302488 6.42734 0.261459 6.53809 0.239737 6.60275C0.218016 6.66742 0.185837 6.77251 0.168138 6.83718C0.150439 6.90185 0.123891 7.01259 0.108606 7.08373C0.0941251 7.15486 0.072404 7.27288 0.0611411 7.34644C0.0498783 7.42 0.0353975 7.53398 0.0281571 7.60108C0.0217212 7.66736 0.0128718 7.78457 0.00804488 7.85975C0.00402244 7.93493 0 8.07154 0 8.16289C0 8.25423 0.00402244 8.39731 0.00804488 8.48219C0.0128718 8.56706 0.0241347 8.71014 0.0329841 8.80149C0.0418334 8.89283 0.0603366 9.04157 0.0732085 9.13291C0.0868847 9.22426 0.108606 9.35845 0.121478 9.43201C0.135154 9.50557 0.162507 9.63814 0.181814 9.72706C0.201122 9.81598 0.238933 9.97037 0.265481 10.0706C0.291225 10.1708 0.336276 10.3325 0.365237 10.4303C0.394199 10.5281 0.443273 10.685 0.474648 10.7779C0.506827 10.8709 0.55751 11.0132 0.587276 11.0932C0.617847 11.1732 0.679792 11.3316 0.726452 11.4448C0.772308 11.558 0.838276 11.7148 0.872869 11.7924C0.906658 11.87 0.979062 12.0244 1.03296 12.136C1.08686 12.2467 1.17938 12.431 1.23811 12.5442C1.29764 12.6574 1.38613 12.8231 1.43601 12.912C1.48589 13.0009 1.5945 13.1901 1.67736 13.3323C1.76022 13.4746 1.87204 13.6621 1.92514 13.7486C1.97824 13.8351 2.08523 14.0065 2.16246 14.1286C2.23969 14.2506 2.3491 14.4204 2.40622 14.5045C2.46254 14.5885 2.53816 14.7017 2.57436 14.755C2.61056 14.8084 2.68055 14.9102 2.72963 14.9814C2.7787 15.0525 2.87122 15.1835 2.93558 15.2724C2.99913 15.3613 3.12463 15.5327 3.21393 15.6523C3.30323 15.772 3.46493 15.9829 3.57273 16.1212C3.68134 16.2594 3.81488 16.4259 3.86959 16.4922C3.9251 16.5585 3.979 16.624 3.99026 16.6377C4.00072 16.6514 4.04577 16.7064 4.09002 16.7598C4.13426 16.8131 4.28148 16.9837 4.41744 17.1397C4.5526 17.2949 4.74246 17.5083 4.83899 17.6126C4.93553 17.7169 5.15033 17.9432 5.31686 18.1162C5.48339 18.2884 5.62176 18.4306 5.62498 18.4315C5.62739 18.4323 5.70945 18.5115 5.80599 18.6069C5.90253 18.7023 6.08836 18.8801 6.21869 19.0022C6.34902 19.1242 6.5429 19.3004 6.64829 19.3942C6.75448 19.488 6.88481 19.6028 6.9379 19.6488C6.9918 19.6949 7.14224 19.8226 7.27257 19.9318C7.4029 20.0417 7.57667 20.184 7.65792 20.2478C7.73917 20.3125 7.85341 20.403 7.91133 20.4491C7.96926 20.4944 8.17199 20.6496 8.36265 20.7927C8.55332 20.9357 8.75766 21.0885 8.81719 21.133C8.87672 21.1766 9.0167 21.2801 9.12692 21.3626C9.23794 21.445 9.39883 21.563 9.48491 21.6245C9.57099 21.6867 9.69247 21.7748 9.75442 21.8201C9.81636 21.8654 9.92899 21.9462 10.0038 21.9995C10.0786 22.0521 10.1929 22.1321 10.2572 22.1766C10.3216 22.2218 10.4286 22.2954 10.4945 22.3415C10.5613 22.3876 10.76 22.5226 10.937 22.6406C11.114 22.7594 11.3183 22.8944 11.3915 22.9413C11.4648 22.9874 11.6289 23.0916 11.7576 23.1717C11.8863 23.2517 12.0271 23.339 12.0713 23.3657C12.1156 23.3923 12.2548 23.474 12.3811 23.5475C12.5074 23.6211 12.6771 23.7181 12.7592 23.7642C12.8412 23.8095 12.9877 23.8895 13.085 23.9404C13.1823 23.9921 13.3851 24.0948 13.5355 24.1692C13.6859 24.2435 13.871 24.3317 13.9458 24.3648C14.0206 24.3979 14.1678 24.4594 14.2716 24.5022C14.3754 24.5443 14.5202 24.6016 14.5934 24.6291C14.6666 24.6566 14.7913 24.7011 14.871 24.7269C14.9506 24.7536 15.0721 24.7916 15.1405 24.811C15.2088 24.8304 15.3086 24.8571 15.3617 24.8708C15.4148 24.8838 15.525 24.908 15.6071 24.9234C15.6891 24.9387 15.8106 24.9589 15.8766 24.9678C15.9433 24.9767 16.0519 24.988 16.1179 24.9937C16.1919 24.9994 16.3078 25.0018 16.4196 24.9986C16.5194 24.9961 16.6424 24.988 16.6931 24.9808C16.7438 24.9735 16.8347 24.9565 16.8942 24.9428C16.9538 24.929 17.0479 24.9024 17.1034 24.8838C17.1589 24.8644 17.2474 24.8296 17.3005 24.807C17.3536 24.7835 17.4365 24.7447 17.4855 24.7197C17.5346 24.6954 17.6135 24.6526 17.6625 24.6251C17.7116 24.5976 17.8073 24.5394 17.8757 24.4958C17.9441 24.4521 18.0237 24.3996 18.0527 24.3794C18.0817 24.3599 18.1412 24.3163 18.1854 24.2823C18.2297 24.2492 18.3311 24.1684 18.4107 24.1029C18.4903 24.0382 18.5933 23.9509 18.64 23.9097C18.6866 23.8685 18.8113 23.7521 18.9175 23.651C19.0237 23.5492 19.2337 23.3398 19.3841 23.1846C19.5346 23.0294 19.7518 22.8031 19.8676 22.681C19.9827 22.5589 20.1202 22.4118 20.1733 22.3536C20.2256 22.2954 20.2964 22.2194 20.3294 22.1838C20.3632 22.1483 20.4284 22.0771 20.475 22.0262C20.5217 21.9753 20.5925 21.8969 20.6319 21.8524C20.6713 21.808 20.7687 21.6988 20.8483 21.6099C20.9279 21.521 21.0261 21.4103 21.0655 21.3634C21.1057 21.3165 21.1846 21.2259 21.2417 21.1613C21.2988 21.0966 21.4235 20.9519 21.5192 20.8387C21.615 20.7256 21.7598 20.5526 21.8418 20.4548C21.9239 20.3562 22.0446 20.2106 22.1105 20.1306C22.1765 20.0506 22.372 19.8065 22.5458 19.589C22.7187 19.3716 22.8957 19.146 22.94 19.0878C22.9834 19.0296 23.0687 18.9189 23.129 18.8413C23.1894 18.7637 23.3326 18.5745 23.4468 18.4209C23.561 18.2674 23.726 18.0434 23.8128 17.9238C23.8997 17.8042 24.0469 17.598 24.1403 17.4671C24.2328 17.3361 24.3864 17.1179 24.4806 16.9821C24.5747 16.8463 24.7629 16.5682 24.8989 16.3637C25.0349 16.1592 25.2287 15.8609 25.3293 15.7008C25.4307 15.5408 25.557 15.3371 25.6109 15.2481C25.6648 15.1592 25.7774 14.9684 25.8619 14.8238C25.9455 14.6791 26.0453 14.5045 26.0831 14.4357C26.1209 14.367 26.199 14.2231 26.2569 14.1164C26.314 14.0097 26.4033 13.8408 26.454 13.7406C26.5055 13.6403 26.5932 13.4625 26.6487 13.3445C26.705 13.2264 26.7886 13.047 26.8353 12.9443C26.882 12.8417 26.9463 12.6962 26.9785 12.621C27.0107 12.5458 27.0678 12.4051 27.1056 12.3098C27.1426 12.2144 27.2062 12.0487 27.2464 11.942C27.2858 11.8353 27.3421 11.6792 27.3711 11.5944C27.4001 11.5095 27.4435 11.3769 27.4684 11.2993C27.4926 11.2217 27.5256 11.1142 27.5408 11.0608C27.5561 11.0075 27.5883 10.8895 27.6132 10.7981C27.6374 10.7068 27.6776 10.5508 27.7017 10.4505C27.7259 10.3503 27.7621 10.1902 27.7822 10.0949C27.8023 9.99947 27.8313 9.84669 27.8465 9.75535C27.8626 9.66401 27.8827 9.53871 27.8916 9.47647C27.9004 9.41422 27.9165 9.29216 27.9278 9.20567C27.9383 9.11917 27.9543 8.95346 27.9632 8.83786C27.9728 8.72227 27.9857 8.49835 27.9922 8.34072C28.0026 8.08771 28.0026 8.02061 27.9922 7.77083C27.9857 7.61482 27.9728 7.4006 27.964 7.2939C27.9552 7.1872 27.9391 7.02553 27.9278 6.93418C27.9165 6.84284 27.8948 6.69006 27.8787 6.59467C27.8634 6.49928 27.8337 6.34085 27.8144 6.24304C27.7943 6.14522 27.7572 5.97951 27.7307 5.87523C27.705 5.77095 27.6639 5.61656 27.6398 5.53168C27.6149 5.4468 27.5746 5.31262 27.5497 5.23259C27.5247 5.15256 27.4789 5.01595 27.4475 4.92945C27.4161 4.84296 27.3598 4.69745 27.3228 4.60611C27.285 4.51477 27.2166 4.35471 27.1692 4.25043C27.1217 4.14615 27.0477 3.98933 27.0034 3.90284C26.96 3.81634 26.8892 3.68377 26.8474 3.60779C26.8047 3.5318 26.7299 3.40327 26.6808 3.32082C26.631 3.23837 26.5698 3.13894 26.5441 3.09852C26.5183 3.05811 26.4644 2.97808 26.4234 2.92068C26.3824 2.86329 26.2995 2.75012 26.2384 2.67009C26.1772 2.59007 26.092 2.48255 26.0501 2.43163C26.0075 2.3807 25.9311 2.2934 25.8804 2.23762C25.8297 2.18104 25.75 2.09454 25.7034 2.04523C25.6567 1.99512 25.557 1.8965 25.4822 1.82617C25.4073 1.75584 25.2947 1.65318 25.2328 1.59902C25.1708 1.54405 25.0783 1.46564 25.0276 1.42522C24.9769 1.384 24.8699 1.30235 24.7903 1.24253C24.7107 1.18352 24.5835 1.09299 24.5087 1.04287C24.4339 0.991943 24.3156 0.916766 24.2473 0.875539C24.1789 0.835122 24.0695 0.771261 24.0043 0.735694C23.9383 0.699318 23.8249 0.63869 23.7509 0.601506C23.6761 0.564322 23.5691 0.513395 23.5112 0.487528C23.4532 0.46166 23.3559 0.421242 23.2939 0.396992C23.232 0.371933 23.1194 0.330706 23.0446 0.30403C22.9697 0.277355 22.8539 0.239362 22.7871 0.219961C22.7212 0.199752 22.6174 0.17146 22.5578 0.156101C22.4983 0.140742 22.3857 0.115683 22.3085 0.100324C22.2312 0.0841573 22.1315 0.0663734 22.0872 0.0599066C22.043 0.0526313 21.9617 0.0421227 21.9062 0.0356558C21.8507 0.0283806 21.7276 0.0178719 21.6327 0.0105967C21.5378 0.00412983 21.409 -0.000720214 21.3471 8.81436e-05C21.2851 8.81436e-05 21.191 0.00412988 21.1379 0.00736331Z" fill="#FFF2C3"/>
</svg>
